<svg xmlns="http://www.w3.org/2000/svg" viewBox="0 0 32 32" width="32" height="32">
  <defs><linearGradient id="g" x1="0" y1="0" x2="0" y2="1"><stop offset="0" stop-color="#e8e8e8"/><stop offset="1" stop-color="#8d8d8d"/></linearGradient></defs>
  <g transform="translate(16 16)" fill="url(#g)" stroke="#3a3a3a" stroke-width="1.2">
    <path d="M-3 -14h6l1 3.5 3 1.3 3.2-1.8 4.2 4.2-1.8 3.2 1.3 3 3.5 1v6l-3.5 1-1.3 3 1.8 3.2-4.2 4.2-3.2-1.8-3 1.3-1 3.5h-6l-1-3.5-3-1.3-3.2 1.8-4.2-4.2 1.8-3.2-1.3-3-3.5-1v-6l3.5-1 1.3-3-1.8-3.2 4.2-4.2 3.2 1.8 3-1.3z"/>
    <circle r="4.5" fill="#3b7ddd"/>
  </g>
</svg>
